<?xml version="1.0" standalone="no"?>
<!DOCTYPE svg PUBLIC "-//W3C//DTD SVG 20010904//EN"
 "http://www.w3.org/TR/2001/REC-SVG-20010904/DTD/svg10.dtd">
<svg version="1.0" xmlns="http://www.w3.org/2000/svg"
 width="28.000000pt" height="28.000000pt" viewBox="0 0 28.000000 28.000000"
 preserveAspectRatio="xMidYMid meet">
<metadata>
Created by potrace 1.16, written by Peter Selinger 2001-2019
</metadata>
<g transform="translate(0.000000,28.000000) scale(0.100000,-0.100000)"
fill="#000000" stroke="none">
<path d="M125 208 c-24 -13 -35 -29 -29 -40 6 -9 34 1 57 20 22 19 31 10 23
-23 -4 -17 -13 -25 -28 -25 -26 0 -84 -35 -92 -57 -14 -36 32 -35 90 4 22 14
31 15 56 5 41 -15 59 -3 21 13 -29 12 -30 15 -25 64 5 51 4 51 -24 51 -16 0
-38 -6 -49 -12z m6 -108 c-13 -11 -30 -20 -39 -20 -13 0 -12 3 4 19 10 11 28
20 39 20 19 0 19 -1 -4 -19z"/>
</g>
</svg>
