<?xml version="1.0" standalone="no"?>
<!DOCTYPE svg PUBLIC "-//W3C//DTD SVG 20010904//EN"
 "http://www.w3.org/TR/2001/REC-SVG-20010904/DTD/svg10.dtd">
<svg version="1.0" xmlns="http://www.w3.org/2000/svg"
 width="28.000000pt" height="28.000000pt" viewBox="0 0 28.000000 28.000000"
 preserveAspectRatio="xMidYMid meet">
<metadata>
Created by potrace 1.16, written by Peter Selinger 2001-2019
</metadata>
<g transform="translate(0.000000,28.000000) scale(0.100000,-0.100000)"
fill="#000000" stroke="none">
<path d="M122 222 c-38 -11 -30 -27 16 -30 54 -4 51 -22 -6 -40 -51 -17 -54
-32 -8 -32 40 0 53 -14 35 -37 -10 -11 -25 -14 -56 -10 -49 5 -66 -9 -37 -30
21 -15 66 -10 102 13 16 11 22 24 22 50 0 19 7 42 16 51 8 9 14 27 12 42 -3
22 -8 26 -38 28 -19 1 -45 -2 -58 -5z"/>
</g>
</svg>
