<?xml version="1.0" standalone="no"?>
<!DOCTYPE svg PUBLIC "-//W3C//DTD SVG 20010904//EN"
 "http://www.w3.org/TR/2001/REC-SVG-20010904/DTD/svg10.dtd">
<svg version="1.0" xmlns="http://www.w3.org/2000/svg"
 width="28.000000pt" height="28.000000pt" viewBox="0 0 28.000000 28.000000"
 preserveAspectRatio="xMidYMid meet">
<metadata>
Created by potrace 1.16, written by Peter Selinger 2001-2019
</metadata>
<g transform="translate(0.000000,28.000000) scale(0.100000,-0.100000)"
fill="#000000" stroke="none">
<path d="M197 191 c-20 -48 -21 -49 -91 -57 l-57 -7 7 44 c8 55 -11 43 -21
-13 -6 -33 -5 -38 17 -43 13 -3 44 -1 68 4 25 6 48 11 51 11 3 0 5 -21 5 -47
-1 -31 4 -48 13 -51 10 -3 12 2 7 22 -3 14 1 58 10 97 18 80 14 99 -9 40z"/>
</g>
</svg>
