<?xml version="1.0" standalone="no"?>
<!DOCTYPE svg PUBLIC "-//W3C//DTD SVG 20010904//EN"
 "http://www.w3.org/TR/2001/REC-SVG-20010904/DTD/svg10.dtd">
<svg version="1.0" xmlns="http://www.w3.org/2000/svg"
 width="28.000000pt" height="28.000000pt" viewBox="0 0 28.000000 28.000000"
 preserveAspectRatio="xMidYMid meet">
<metadata>
Created by potrace 1.16, written by Peter Selinger 2001-2019
</metadata>
<g transform="translate(0.000000,28.000000) scale(0.100000,-0.100000)"
fill="#000000" stroke="none">
<path d="M165 224 c-5 -1 -27 -5 -48 -9 -24 -4 -37 -11 -34 -18 3 -7 10 -11
16 -10 6 2 11 -3 11 -11 0 -8 14 -26 30 -39 17 -14 30 -28 30 -30 0 -2 -30
-19 -67 -38 -63 -32 -66 -34 -38 -37 38 -5 135 46 135 70 0 9 -13 25 -30 34
-16 10 -32 24 -35 31 -5 16 19 28 35 18 5 -3 10 1 10 9 0 10 9 16 25 16 14 0
25 4 25 9 0 9 -40 12 -65 5z"/>
</g>
</svg>
