<?xml version="1.0" standalone="no"?>
<!DOCTYPE svg PUBLIC "-//W3C//DTD SVG 20010904//EN"
 "http://www.w3.org/TR/2001/REC-SVG-20010904/DTD/svg10.dtd">
<svg version="1.0" xmlns="http://www.w3.org/2000/svg"
 width="28.000000pt" height="28.000000pt" viewBox="0 0 28.000000 28.000000"
 preserveAspectRatio="xMidYMid meet">
<metadata>
Created by potrace 1.16, written by Peter Selinger 2001-2019
</metadata>
<g transform="translate(0.000000,28.000000) scale(0.100000,-0.100000)"
fill="#000000" stroke="none">
<path d="M135 224 c-41 -44 -68 -120 -53 -147 14 -27 65 -17 106 21 36 34 39
44 17 62 -12 10 -21 8 -50 -14 -19 -15 -35 -36 -35 -47 0 -10 -4 -19 -10 -19
-5 0 -10 11 -10 25 0 14 4 25 9 25 5 0 11 12 14 28 3 15 19 41 36 57 17 17 31
33 31 38 0 17 -25 4 -55 -29z m50 -104 c-10 -11 -25 -20 -34 -20 -12 0 -9 6 9
20 33 26 48 26 25 0z"/>
</g>
</svg>
